<svg xmlns="http://www.w3.org/2000/svg" viewBox="0 0 206.37 206.4"><defs><style>.cls-1{fill:#fff;}</style></defs><title>facebook</title><g id="Layer_2" data-name="Layer 2"><g id="ëÎÓÈ_1" data-name="ëÎÓÈ 1"><path class="cls-1" d="M206.37,53.88v98.63A53.94,53.94,0,0,1,152.5,206.4H117.18V133.15h24.49l4.67-30.92H117.18v-22a13.06,13.06,0,0,1,13.06-13.06h18.45V37.34H122.33A37.86,37.86,0,0,0,84.47,75.2v27.29H57.68v31.13H84.47V206.4H53.87A53.94,53.94,0,0,1,0,152.51V53.88A53.94,53.94,0,0,1,53.87,0H152.5A53.94,53.94,0,0,1,206.37,53.88Z"/></g></g></svg>