<svg xmlns="http://www.w3.org/2000/svg" viewBox="0 0 206.39 206.39"><defs><style>.cls-1{fill:#fff;}</style></defs><title>instagram</title><g id="Layer_2" data-name="Layer 2"><g id="ëÎÓÈ_1" data-name="ëÎÓÈ 1"><path class="cls-1" d="M154.93,0H51.47A51.47,51.47,0,0,0,0,51.47V154.93a51.46,51.46,0,0,0,51.47,51.46H154.93a51.46,51.46,0,0,0,51.46-51.46V51.47A51.47,51.47,0,0,0,154.93,0Zm24.32,139.55a39.75,39.75,0,0,1-39.71,39.7H66.85a39.75,39.75,0,0,1-39.7-39.7V66.85a39.75,39.75,0,0,1,39.7-39.7h72.69a39.75,39.75,0,0,1,39.71,39.7Z"/><path class="cls-1" d="M103.2,129.27a26.07,26.07,0,1,1,26.06-26.07A26.1,26.1,0,0,1,103.2,129.27Z"/><path class="cls-1" d="M139.54,40.16H66.85A26.72,26.72,0,0,0,40.16,66.85v72.7a26.72,26.72,0,0,0,26.69,26.69h72.69a26.73,26.73,0,0,0,26.7-26.69V66.85A26.72,26.72,0,0,0,139.54,40.16ZM103.2,142.27a39.08,39.08,0,1,1,39.07-39.07A39.11,39.11,0,0,1,103.2,142.27Zm40.16-70.92a9,9,0,1,1,9-9A9,9,0,0,1,143.36,71.35Z"/><path class="cls-1" d="M129.26,103.2A26.07,26.07,0,1,1,103.2,77.13,26.1,26.1,0,0,1,129.26,103.2Z"/></g></g></svg>