<svg xmlns="http://www.w3.org/2000/svg" viewBox="0 0 206.38 206.4"><defs><style>.cls-1{fill:#fff;}</style></defs><title>linkein</title><g id="Layer_2" data-name="Layer 2"><g id="ëÎÓÈ_1" data-name="ëÎÓÈ 1"><path class="cls-1" d="M152.5,0H53.87A53.94,53.94,0,0,0,0,53.88v98.63A53.94,53.94,0,0,0,53.87,206.4H152.5a54,54,0,0,0,53.88-53.89V53.88A54,54,0,0,0,152.5,0ZM64.76,171.16H37.6V81.57H64.76ZM51.18,66.87A15.82,15.82,0,1,1,67,51.05,15.82,15.82,0,0,1,51.18,66.87ZM171,171.16H143.86V124.6c0-13.67-5.47-23.32-14.29-23.32-15.3,0-19.71,9.77-19.71,30.05v39.83H82.71V109.37c0-9.44,0-20.86-.22-29.13h26.32a111.42,111.42,0,0,1,1,13.12c3.94-7.68,12.43-15.77,32.35-15.77,21.73,0,28.8,15.69,28.8,43.9Z"/></g></g></svg>